<svg xmlns="http://www.w3.org/2000/svg" width="25" height="25" viewBox="0 0 25 25" fill="none">
<path d="M9.60999 12.59C9.60999 14.25 10.95 15.59 12.61 15.59C14.27 15.59 15.61 14.25 15.61 12.59C15.61 10.93 14.27 9.58997 12.61 9.58997C10.95 9.58997 9.60999 10.93 9.60999 12.59Z" fill="black" fill-opacity="0.54"/>
<path d="M8.60999 10.59V8.58997H5.69999C7.07999 6.19997 9.65999 4.58997 12.61 4.58997C16.33 4.58997 19.46 7.14997 20.35 10.59H22.41C21.48 6.02997 17.45 2.58997 12.61 2.58997C9.33999 2.58997 6.42999 4.16997 4.60999 6.59997V4.58997H2.60999V10.59H8.60999ZM16.61 14.59V16.59H19.52C18.14 18.98 15.56 20.59 12.61 20.59C8.88999 20.59 5.75999 18.03 4.86999 14.59H2.80999C3.73999 19.15 7.76999 22.59 12.61 22.59C15.88 22.59 18.79 21.01 20.61 18.58V20.59H22.61V14.59H16.61Z" fill="black" fill-opacity="0.54"/>
</svg>